<svg xmlns="http://www.w3.org/2000/svg" xmlns:xlink="http://www.w3.org/1999/xlink" width="768" height="801" viewBox="0 0 768 801">
  <defs>
    <clipPath id="clip-artwork-contact">
      <rect width="768" height="801"/>
    </clipPath>
  </defs>
  <g id="artwork-contact" clip-path="url(#clip-artwork-contact)">
    <g id="Group_19814" data-name="Group 19814" transform="translate(12682 13130)">
      <rect id="Rectangle_30242" data-name="Rectangle 30242" width="768" height="801" rx="40" transform="translate(-12682 -13130)" fill="#fff7f5"/>
    </g>
    <g id="Mesa_de_trabajo_1" data-name="Mesa de trabajo 1" transform="translate(53.413 104.36)" style="isolation: isolate">
      <g id="BACKGROUND" transform="translate(32.301 71.904)">
        <path id="Path_34556" data-name="Path 34556" d="M134.524,496.738S60.236,443.844,38.855,353.792,50.1,154.565,112.015,99.454s173.344-18.008,222.865,28.14l49.535,46.148s47.277,25.842,109.175,23.638,117.064,82.177,131.7,148.591-20.265,154.194-20.265,154.194Z" transform="translate(-32.301 -71.904)" fill="#fcefec"/>
        <path id="Path_34558" data-name="Path 34558" d="M168.094,450.148c-3.21-3.373-50.46-97.927,2.149-184.592s184.674-76.546,237.269-42.775,78.382,77.675,83.755,123.769-30.072,118.179-30.072,118.179Z" transform="translate(8.472 -26.443)" fill="#fff3f0" style="mix-blend-mode: multiply;isolation: isolate"/>
      </g>
      <g id="OBJECTS" transform="translate(77.558 105.031)">
        <path id="Path_34565" data-name="Path 34565" d="M149.226,409.659v-101.3s-1.129-27.3,13.234-35.172,74.805-3.659,74.805-3.659v140.09Z" transform="translate(-35.462 -34.273)" fill="#424262"/>
        <path id="Path_34566" data-name="Path 34566" d="M231.438,199.5s-3.659,30.684-5.073,33.214l-1.36,2.53-7,4.788s13.506,19.137,30.1,22.224,15.206-6.8,15.206-6.8l-2.543-5.359,3.387-29.256S233.968,207.1,231.438,199.5Z" transform="translate(-10.689 -59.084)" fill="#ff9d8c"/>
        <path id="Path_34567" data-name="Path 34567" d="M211.53,232.428l10.976-4.788s7.032,11.534,23.353,18.293,16.607,2.815,17.45,0a10.718,10.718,0,0,0-.286-5.916l1.211-9.847,6.528,2.176,22.659,183.273-58.253,2.815Z" transform="translate(-13.019 -48.951)" fill="#fff"/>
        <path id="Path_34568" data-name="Path 34568" d="M251.05,229.64s3.944,9.1,7.6,30.493,7.032,57.4,7.875,82.163,1.36,81.32,1.36,81.32h73.445c.843,0,5.916-27.855,5.916-27.855s-32.044-27.488-33.7-31.989c-1.129-2.992-.558-58.62-5.345-84.231s-10.976-30.765-23.951-37.171C270.88,235.8,251.05,229.64,251.05,229.64Z" transform="translate(1.212 -48.23)" fill="#f77b63"/>
        <path id="Path_34569" data-name="Path 34569" d="M279.745,379.766a.68.68,0,0,1-.68-.68c0-2.013-.367-30.6-.707-58.253s-.707-56.226-.707-58.253a.68.68,0,1,1,1.36,0c0,2.013.367,30.6.707,58.239s.707,56.24.707,58.267A.694.694,0,0,1,279.745,379.766Z" transform="translate(10.791 -36.614)" fill="#424262"/>
        <path id="Path_34570" data-name="Path 34570" d="M171.748,343.5l-.558,39.116h85.536s3.659-33.2,2.258-36.3S171.748,343.5,171.748,343.5Z" transform="translate(-27.545 -7.232)" fill="#424262"/>
        <g id="Group_20470" data-name="Group 20470" transform="translate(223.102 143.735)" style="mix-blend-mode: multiply;isolation: isolate">
          <path id="Path_34571" data-name="Path 34571" d="M245.918,230.992a44.787,44.787,0,0,0,11.969,6.42l2.013-17.4s-22.618-10.364-30.289-18.076C231.215,210.7,235.159,222.3,245.918,230.992Z" transform="translate(-229.61 -201.94)" fill="#8e9bbb"/>
        </g>
        <path id="Path_34572" data-name="Path 34572" d="M288.274,159.177a61.028,61.028,0,0,1,7.032,22.523c1.129,12.377,0,44.176-10.133,57.682s-31.282,9.521-40.8,1.36c-8.786-7.481-17.45-15.75-19.694-32.071s4.774-47.277,24.754-53.751S288.274,159.177,288.274,159.177Z" transform="translate(-8.429 -75.885)" fill="#ff9d8c"/>
        <path id="Path_34573" data-name="Path 34573" d="M309.595,365.529h-3.659l-5.005-.136h-1.2c-1.768,0-3.278.177-4.692.1h-1.088a2.637,2.637,0,0,1-.449,0,6.608,6.608,0,0,1-1.863-.734,126.491,126.491,0,0,0-29.188-3.89c-12.567,0-23.842.911-25.679-.626s-2.965-17.355,7.766-18.388l13.193,5.005s30.126-3.577,41.17,4.57S309.595,365.529,309.595,365.529Z" transform="translate(-4.356 -7.824)" fill="#ff9d8c"/>
        <path id="Path_34574" data-name="Path 34574" d="M283.822,361.541h-1.088a12.767,12.767,0,0,0-1.156-1.551c-3.4-3.468-11.615-5.712-14.594-6.433a.511.511,0,1,1,.245-.993c4.339,1.047,13.6,3.727,16.158,8.161C283.468,360.847,283.686,361.323,283.822,361.541Z" transform="translate(6.809 -3.971)" fill="#223a7a"/>
        <path id="Path_34575" data-name="Path 34575" d="M288.724,362.358h-1.2c-3.713-6.8-9.779-8.7-17.287-11.126l-.449-.15a.51.51,0,0,1,.326-.966l.435.15C278.483,352.769,284.875,354.809,288.724,362.358Z" transform="translate(7.836 -4.857)" fill="#223a7a"/>
        <path id="Path_34576" data-name="Path 34576" d="M293.749,363.326h-1.156a29.637,29.637,0,0,0-19.558-14.5.5.5,0,0,1-.422-.6.53.53,0,0,1,.585-.408C283.357,349.725,291.559,358.008,293.749,363.326Z" transform="translate(8.973 -5.675)" fill="#223a7a"/>
        <path id="Path_34577" data-name="Path 34577" d="M234.9,200.208a26.44,26.44,0,0,0,10.554-11.262,31.935,31.935,0,0,0,3.795-15.764s7.889-1.265,19.708,2.258,25.842,8.3,37.7,1.551,11.819-17.586,6.052-22.088c-6.46-5.046-19.273-1.972-19.273-1.972s4.924-4.788,2.244-7.6-12.377.843-12.377.843-11.819-9.425-34.193-8.3-33.064,16.743-34.329,34.206,5.06,34.886,5.06,34.886Z" transform="translate(-11.907 -81.308)" fill="#424262"/>
        <path id="Path_34578" data-name="Path 34578" d="M223.74,201.669s1.129,4.352,7.6,9.425a74.805,74.805,0,0,0,15.872,8.759l.748-3.278s-9.711-4.216-14.213-8.868-5.06-7.168-5.06-7.168Z" transform="translate(-8.622 -58.709)" fill="#dee1eb"/>
        <path id="Path_34579" data-name="Path 34579" d="M243.537,210.554a8.161,8.161,0,0,1,8.473,6.528c.367,2.72-2.135,5.658-7.984,3.033C236.75,216.851,238.328,210.785,243.537,210.554Z" transform="translate(-3.094 -55.108)" fill="#424262"/>
        <path id="Path_34580" data-name="Path 34580" d="M229.833,191.814s2.244-16.172,13.084-27.2c20.687-20.959,38.273-19.694,38.273-19.694s-.15-2.951-6.8-5.209c-6.2-2.108-9-.979-9-.979s-17.028,1.36-31.377,17.3S218.15,192.25,218.15,192.25Z" transform="translate(-10.635 -81.075)" fill="#dee1eb"/>
        <path id="Path_34581" data-name="Path 34581" d="M231.344,176.314c-13.6-2.3-21.109,8.3-21.666,19.041s7.249,18.729,17.586,17.953C250.616,211.486,247.951,179.129,231.344,176.314Z" transform="translate(-13.696 -67.547)" fill="#fff"/>
        <path id="Path_34582" data-name="Path 34582" d="M223.186,201.371a9.235,9.235,0,0,1-8.324-4.951,10.3,10.3,0,0,1,.394-10.636.509.509,0,1,1,.843.571,9.262,9.262,0,0,0-.34,9.521,8.161,8.161,0,0,0,7.685,4.42,8.9,8.9,0,0,0,7.385-3.985,11.248,11.248,0,0,0,1.115-10,7.6,7.6,0,0,0-7.589-4.992.5.5,0,0,1-.571-.435.517.517,0,0,1,.435-.571,8.528,8.528,0,0,1,8.691,5.644,12.35,12.35,0,0,1-1.224,10.881,9.97,9.97,0,0,1-8.161,4.434Z" transform="translate(-12.284 -66.001)" fill="#818fb3"/>
        <path id="Path_34583" data-name="Path 34583" d="M233.73,228.26s-41.075,10.133-55.424,26.454-21.109,96.8-21.394,111.718,10.133,21.109,16.321,25.325,33.486,11.819,55.438,12.948,42.775,0,42.775,0a29.3,29.3,0,0,1,3.305-11.819c3.128-6.528,7.1-7.889,7.1-7.889L263,378.2s-3.305-59.164-8.446-87.726C248.65,257.529,233.73,228.26,233.73,228.26Z" transform="translate(-32.689 -48.727)" fill="#f77b63"/>
        <path id="Path_34584" data-name="Path 34584" d="M266.531,367.9a.693.693,0,0,1-.272,0,.68.68,0,0,1-.34-.9c3.849-8.691,7.834-25.733,10.078-37.7l.19-.966c.68-3.523,1.523-7.9-.163-10.881-.87-1.537-2.815-4.883-4.679-8.093s-3.767-6.488-4.284-7.426c-.993-1.836,2.135-6.8,6.651-13.479,1.211-1.823,2.271-3.387,2.883-4.448,1.619-2.72.544-5.345-.694-8.3l-.476-1.1c-1.115-2.72-2.394-5.522-3.631-8.161l-1.51-3.291c-.666-1.455-1.36-2.924-2-4.434a256.933,256.933,0,0,0-13.261-26.93.694.694,0,0,1,.245-.938.667.667,0,0,1,.925.245,258.41,258.41,0,0,1,13.424,27.025l2,4.42,1.51,3.278c1.238,2.72,2.516,5.44,3.659,8.256l.422,1.006c1.265,3.019,2.571,6.134.626,9.521-.639,1.1-1.7,2.72-2.938,4.529-2.353,3.509-7.263,10.813-6.583,12.064.5.925,2.326,4.08,4.257,7.4s3.835,6.569,4.692,8.161c1.931,3.455,1.034,8.093.313,11.833l-.19.952c-.816,4.366-5.155,26.672-10.174,38A.68.68,0,0,1,266.531,367.9Z" transform="translate(2.611 -47.827)" fill="#424262"/>
        <path id="Path_34585" data-name="Path 34585" d="M243.206,370.872a.639.639,0,0,1-.476-.2c-3.21-3.223-18.62-29.922-19.776-34.941-.626-2.72.952-9.725,2.475-16.471,1.183-5.223,2.407-10.622,2.067-12.078-.53-2.19-4.475-5.44-8.283-8.528-4.611-3.767-9.371-7.657-10.3-11.166-1.047-3.985-.15-28.916.449-45.414.2-5.944.381-10.622.381-12.241a.68.68,0,0,1,.68-.68h0a.68.68,0,0,1,.68.68c0,1.687-.177,6.392-.381,12.336-.558,15.423-1.483,41.238-.49,45.033.816,3.074,5.6,6.991,9.833,10.459s8.161,6.624,8.745,9.249c.422,1.768-.734,6.8-2.054,12.7-1.36,6.3-3.033,13.411-2.475,15.872,1.129,4.91,16.321,31.119,19.409,34.288a.666.666,0,0,1,0,.952.639.639,0,0,1-.49.15Z" transform="translate(-14.133 -48.407)" fill="#424262"/>
        <path id="Path_34586" data-name="Path 34586" d="M193.512,346.152h-.1a.68.68,0,0,1-.585-.775c.5-3.536,8.31-73.989,8.664-79.389a.682.682,0,1,1,1.36.1c-.367,5.44-8.161,75.948-8.677,79.484A.68.68,0,0,1,193.512,346.152Z" transform="translate(-19.754 -35.37)" fill="#424262"/>
        <path id="Path_34587" data-name="Path 34587" d="M253.306,345.731a.585.585,0,0,1-.258,0c-1.727-.694-9.371-3.278-19.041-6.542-19.531-6.583-46.243-15.6-51.371-18.239a.694.694,0,0,1-.286-.925.68.68,0,0,1,.911-.286c4.992,2.6,32.792,11.969,51.167,18.171,9.7,3.264,17.368,5.848,19.137,6.569a.68.68,0,0,1,.367.884A.694.694,0,0,1,253.306,345.731Z" transform="translate(-23.554 -15.813)" fill="#424262"/>
        <path id="Path_34588" data-name="Path 34588" d="M247.792,363.02c-17.178,0-50.5-3.1-75.812-12.05a.716.716,0,1,1,.449-1.36c31.976,11.316,76.709,13.247,85.033,11.384a.7.7,0,1,1,.3,1.36,53.881,53.881,0,0,1-9.97.666Z" transform="translate(-27.437 -5.043)" fill="#8593b6"/>
        <path id="Path_34589" data-name="Path 34589" d="M85.053,248.289c5.332,4.692,12.091,7.7,16.77,13.125,1.85,2.135,3.5,4.407,5.209,6.651,1.251,1.632,4.57,4.325,5.114,6.379.231.9.177-.326,0-1.224v-.109c-.462-4.148-.8-8.31-.952-12.486s.122-8.337-.136-12.5c-.381-5.848-2.2-11.534-6.991-15.206-2.339-1.782-5.359-2.883-7.508-4.869s-1.224-4.08,0-6.161a21.517,21.517,0,0,0,2.924-6.188,10.962,10.962,0,0,0-1.782-7.44c-2.788-4.679-8.977-9.9-14.825-9.194-4.883.585-5.44,6.216-5.359,10.133s.435,7.617.476,11.438-.626,7.753-.68,11.656C77.056,238.932,80.116,243.991,85.053,248.289Z" transform="translate(-61.355 -59.263)" fill="#40c186"/>
        <path id="Path_34590" data-name="Path 34590" d="M138.8,301.711a62.887,62.887,0,0,1,5.277-10.078c2.883-4.42,6.066-8.732,8-13.669s1.687-10.473,1.877-15.791c.15-3.9,1.36-7.807.993-11.738-.15-1.877-1.238-4.91-3.659-4.611-1.9.245-3.019,2.6-3.754,4.08a71.643,71.643,0,0,0-3.087,8.161c-.367,1.074-.721,2.163-1.183,3.2-.272.6-1.142,2.067-1.945,1.877-1.36-.354-.136-6,0-6.991,1.034-5.019,2.6-9.684,2.8-14.852.313-7.494-.258-16.416-7.589-20.51-1.918-1.074-4.339-1.714-6.161-.109s-2.312,4.325-2.571,6.569c-.816,6.923.8,13.479,3.033,19.98,1.823,5.44,4,10.881,4.162,16.675.15,5.536-2.72,10.432-4.08,15.668a49.657,49.657,0,0,0-1.714,15.437c0,3.373.109,6.719.354,10.092.231,3.1.5,6.188.884,9.276a13.828,13.828,0,0,0,.231,1.931c-1.2-2.87-1.619-6.148-2.6-9.031-1.755-5.114-3.781-10.133-5.44-15.274a125.587,125.587,0,0,0-4.529-12.622c-1.727-3.822-3.795-7.875-7-10.69a10.282,10.282,0,0,0-6.882-2.72,18.837,18.837,0,0,0-4.733,1.007,5.332,5.332,0,0,1-5.1-.9c-5.25-4.08-6.8-11.275-10.731-16.321-2.856-3.808-9.738-10.3-14.771-6.148-2.72,2.2-3.427,6.474-3.278,9.738a23.57,23.57,0,0,0,4.08,11.275c2.271,3.645,5.2,6.909,7.29,10.65a11.3,11.3,0,0,1,1.224,6.8,16.321,16.321,0,0,0,.408,6.9c2.407,6.8,9.929,5.862,15.777,6.039a43.823,43.823,0,0,1,12.363,2.054,13.723,13.723,0,0,1,9.017,8.868c1.156,3.21,1.782,6.8,3.971,9.589a10.215,10.215,0,0,0,3.876,2.9c2.285,1.006,9.235,1.442,9.289.816a30.847,30.847,0,0,1,1.809-6.392C135.871,309.083,137.258,305.4,138.8,301.711Z" transform="translate(-65.576 -51.807)" fill="#40c186"/>
        <path id="Path_34591" data-name="Path 34591" d="M153.441,282.264c-.6-3.9-.49-8.161-2.339-11.765a.517.517,0,0,0-.707-.19c-1.36.734-1.36,2.87-1.5,4.175-.177,2.176,0,4.352-.313,6.515a49.086,49.086,0,0,1-2.72,11.3,12.241,12.241,0,0,1-8.473,7.617,21.53,21.53,0,0,0-7.4,3.264,15.655,15.655,0,0,0-4.352,6c-2.72,6.134-4.08,12.975-5.291,19.531-.857,4.407-1.551,8.841-2.625,13.207A127.848,127.848,0,0,0,114.9,355.07c-.109.231-.218.449-.313.68-.286.666.762,1.02,1.115.476,4.23-6.515,9.385-12.35,16.4-15.927,3.169-1.619,7.385-1.959,10.038-4.5,2.013-1.931,2.285-4.883,1.986-7.521-.394-3.455-2.054-6.3-3.781-9.235-.952-1.618-2.067-3.359-1.687-5.318a6.8,6.8,0,0,1,3.441-4.175c2.911-1.809,6.324-2.625,8.718-5.236a14.3,14.3,0,0,0,3.7-8.718A60.157,60.157,0,0,0,153.441,282.264Z" transform="translate(-47.946 -33.611)" fill="#40c186"/>
        <path id="Path_34592" data-name="Path 34592" d="M107.063,299.578a56.062,56.062,0,0,0-13.288-12.241c-2.72-1.8-9.072-5.332-10.364,0-.748,3.1,2.285,6.148,4.284,8.093,3.006,2.924,6.474,5.44,9,8.813-3.128,1.006-6.406,1.2-9.14,3.373-3.223,2.571-4.679,7.521-1.469,10.677a20.62,20.62,0,0,0,5.563,3.414c2.53,1.211,5.1,2.326,7.685,3.4,5.59,2.339,11.248,4.706,16.008,8.528s9.425,10.486,9.806,16.838c0,.612-.19,0,.163-.218.2.177.87-.15.87-.5a67.148,67.148,0,0,0-5.658-27.052,112.4,112.4,0,0,0-13.465-23.122Z" transform="translate(-59.196 -28.47)" fill="#40c186"/>
        <path id="Path_34593" data-name="Path 34593" d="M91.3,231.153c2.067,4.271,4.216,8.433,6.5,12.594a103.6,103.6,0,0,1,6.039,12.241c2.027,5.264,4.08,10.446,6.284,15.668a152.7,152.7,0,0,1,5.808,16.593,196.765,196.765,0,0,1,6.569,33.744,136.011,136.011,0,0,1,.694,17.45c-.122,4.543-.639,9.045-1.061,13.6a79.876,79.876,0,0,0-.381,14.2c.34,3.944.966,8.637,4.08,11.452a.707.707,0,0,0,1.1-.843c-3.645-7.467-3.441-15.614-2.72-23.72.394-4.461.925-8.909,1.074-13.4a133.291,133.291,0,0,0-.571-17.124,202.46,202.46,0,0,0-6.175-33.078,147.825,147.825,0,0,0-5.44-16.321c-2.108-5.359-4.556-10.582-6.61-15.968-3.713-9.752-9.385-18.388-14.39-27.474-.258-.476-.938,0-.721.422Z" transform="translate(-56.313 -47.894)" fill="#43588e"/>
        <path id="Path_34594" data-name="Path 34594" d="M114.527,300.058c.585-7.1,1.21-13.927,3.6-20.7,1.115-3.155,2.475-6.229,3.55-9.4.884-2.625,2.217-6.216,1.537-9a.313.313,0,0,0-.612,0c-.462,1.591-.408,3.332-.748,4.964a42.5,42.5,0,0,1-1.238,4.692c-1.047,3.278-2.421,6.42-3.618,9.657a47.862,47.862,0,0,0-2.979,19.789.245.245,0,0,0,.49,0Z" transform="translate(-48.163 -37.043)" fill="#43588e"/>
        <path id="Path_34595" data-name="Path 34595" d="M84.127,259.764c2.815,6.8,11.289,7.195,17.464,8.718a16.321,16.321,0,0,1,10,7.848,59.546,59.546,0,0,1,5.7,13.737h.082c-1.727-8.161-4.189-17.98-12.608-21.762-6.8-3.047-15.614-1.523-19.925-8.8-.218-.354-.87-.122-.707.3Z" transform="translate(-58.905 -37.538)" fill="#43588e"/>
        <path id="Path_34596" data-name="Path 34596" d="M111.093,288.893c.34.449.639.925.993,1.36a3.305,3.305,0,0,0,.558.6,1.36,1.36,0,0,0,.789.394.163.163,0,0,0,.15-.245,2.857,2.857,0,0,0-.6-.544l-.6-.53c-.394-.381-.748-.789-1.142-1.17,0-.068-.218,0-.15.122Z" transform="translate(-49.19 -26.952)" fill="#43588e"/>
        <path id="Path_34597" data-name="Path 34597" d="M98.171,304.878a68.644,68.644,0,0,1,12.907,13.873,84.331,84.331,0,0,1,4.692,7.739,85.17,85.17,0,0,1,3.808,8.963c.082.231.5.231.476,0-.68-6.406-4.733-11.887-7.984-17.219a41.36,41.36,0,0,0-6.039-7.3,53.155,53.155,0,0,0-7.426-6.556c-.326-.231-.762.3-.435.571Z" transform="translate(-53.881 -21.339)" fill="#43588e"/>
        <path id="Path_34598" data-name="Path 34598" d="M130.412,299.192c-2.339,1.36-2.407,5.032-2.462,7.385-.082,4.543,1.034,8.8-.952,13.125-1.8,3.9-4.665,7.168-6.936,10.786-2.108,3.4-4.189,7.739-4.08,11.819,0,.245.367.367.476.136a49.868,49.868,0,0,0,1.768-5.9,24.483,24.483,0,0,1,2.883-6.093c2.176-3.373,4.842-6.433,6.61-10.065s1.578-7.589,1.455-11.724c-.082-2.639-.34-6.882,1.782-8.841.34-.313-.082-.83-.476-.626Z" transform="translate(-47.427 -23.202)" fill="#43588e"/>
        <path id="Path_34599" data-name="Path 34599" d="M122.311,331.258C112.885,331.136,95,331,95,331l4.434,33a14.961,14.961,0,0,0,14.839,12.962H130.5A14.961,14.961,0,0,0,145.323,364l4.38-33S131.723,331.136,122.311,331.258Z" transform="translate(-54.981 -11.731)" fill="#fff"/>
        <path id="Path_34600" data-name="Path 34600" d="M505.958,287.01,452.166,393.56,295.32,394.689,343.726,285.5Z" transform="translate(17.154 -28.115)" fill="#f6f7fa"/>
        <path id="Path_34601" data-name="Path 34601" d="M218.8,394.667v-8.528H320.318L367.037,283.71h162.4l4.08,3.944H374.9L326.356,394.585S218.8,394.381,218.8,394.667Z" transform="translate(-10.401 -28.76)" fill="#d9dee8"/>
        <path id="Path_34603" data-name="Path 34603" d="M298.061,394.4a.734.734,0,0,1-.286-.068.68.68,0,0,1-.34-.9L346.154,286.11H505.286a.68.68,0,0,1,.68.68.694.694,0,0,1-.68.68H347.039L298.673,394.006a.666.666,0,0,1-.612.394Z" transform="translate(17.894 -27.896)" fill="#fff"/>
        <rect id="Rectangle_30446" data-name="Rectangle 30446" width="186.564" height="41.361" transform="translate(14.762 373.986)" fill="#596b9b"/>
        <rect id="Rectangle_30447" data-name="Rectangle 30447" width="335.672" height="41.361" transform="translate(200.266 373.986)" fill="#7a89af"/>
        <path id="Path_34604" data-name="Path 34604" d="M262.994,371.23H76.43v7.589H597.605V371.23Z" transform="translate(-61.668 2.756)" fill="#424262" style="mix-blend-mode: multiply;isolation: isolate"/>
        <rect id="Rectangle_30448" data-name="Rectangle 30448" width="203.729" height="10.133" transform="translate(5.758 365.825)" fill="#6f7fa9"/>
        <rect id="Rectangle_30449" data-name="Rectangle 30449" width="335.672" height="10.133" transform="translate(208.426 365.825)" fill="#9ca6c3"/>
        <rect id="Rectangle_30450" data-name="Rectangle 30450" width="80.627" height="47.644" rx="5.43" transform="translate(80.985 101.15)" fill="#fff"/>
        <path id="Path_34605" data-name="Path 34605" d="M204.737,190.9,180.01,180.47v20.877Z" transform="translate(-24.369 -65.936)" fill="#fff"/>
        <circle id="Ellipse_10997" data-name="Ellipse 10997" cx="4.556" cy="4.556" r="4.556" transform="translate(101.115 120.409)" fill="#223a7a"/>
        <circle id="Ellipse_10998" data-name="Ellipse 10998" cx="4.556" cy="4.556" r="4.556" transform="translate(116.742 120.409)" fill="#223a7a"/>
        <circle id="Ellipse_10999" data-name="Ellipse 10999" cx="4.556" cy="4.556" r="4.556" transform="translate(132.356 120.409)" fill="#223a7a"/>
        <path id="Path_34606" data-name="Path 34606" d="M470.44,96.26H318.381A17.681,17.681,0,0,0,300.7,113.941v72.085a17.681,17.681,0,0,0,17.681,17.681h13.6c.381,6.528-.558,16.321-6.025,28.7a76.343,76.343,0,0,0,32.969-28.7H470.454a17.681,17.681,0,0,0,17.681-17.681V113.941A17.681,17.681,0,0,0,470.44,96.26Z" transform="translate(19.091 -96.26)" fill="#ffa695"/>
        <path id="Path_34607" data-name="Path 34607" d="M398.771,123.528H323.354a3.767,3.767,0,0,1-3.754-3.754h0a3.767,3.767,0,0,1,3.754-3.754h75.417a3.767,3.767,0,0,1,3.754,3.754h0a3.768,3.768,0,0,1-3.754,3.754Z" transform="translate(25.897 -89.145)" fill="#fff"/>
        <path id="Path_34608" data-name="Path 34608" d="M452.849,138.827H321.9a2.3,2.3,0,0,1-2.3-2.3h0a2.3,2.3,0,0,1,2.3-2.3h130.95a2.3,2.3,0,0,1,2.3,2.3h0a2.3,2.3,0,0,1-2.3,2.3Z" transform="translate(25.897 -82.587)" fill="#fff7f5"/>
        <path id="Path_34609" data-name="Path 34609" d="M452.849,148.217H321.9a2.3,2.3,0,0,1-2.3-2.3h0a2.3,2.3,0,0,1,2.3-2.3h130.95a2.3,2.3,0,0,1,2.3,2.3h0a2.3,2.3,0,0,1-2.3,2.3Z" transform="translate(25.897 -79.206)" fill="#fff7f5"/>
        <path id="Path_34610" data-name="Path 34610" d="M424.287,158.217H321.9a2.3,2.3,0,0,1-2.3-2.3h0a2.3,2.3,0,0,1,2.3-2.3H424.287a2.3,2.3,0,0,1,2.3,2.3h0a2.3,2.3,0,0,1-2.3,2.3Z" transform="translate(25.897 -75.605)" fill="#fff7f5"/>
        <path id="Path_34611" data-name="Path 34611" d="M427.328,123.528H391.354a3.768,3.768,0,0,1-3.754-3.754h0a3.767,3.767,0,0,1,3.754-3.754h35.975a3.767,3.767,0,0,1,3.754,3.754h0a3.768,3.768,0,0,1-3.754,3.754Z" transform="translate(50.384 -89.145)" fill="#fff"/>
        <rect id="Rectangle_30451" data-name="Rectangle 30451" width="46.284" height="33.35" rx="2" transform="translate(343.47 166.925)" fill="#fff"/>
        <path id="Path_34612" data-name="Path 34612" d="M341.483,240.445a1.061,1.061,0,0,1-.639-.231l-22.237-18.361a1.042,1.042,0,1,1,1.36-1.578l21.557,17.817L362.537,219.8a1.026,1.026,0,1,1,1.36,1.537l-21.666,18.851A.993.993,0,0,1,341.483,240.445Z" transform="translate(25.409 -51.867)" fill="#e9e9f0"/>
        <path id="Path_34613" data-name="Path 34613" d="M319.271,247.794a1.006,1.006,0,0,1-.734-1.714l15.546-16.321a1.019,1.019,0,0,1,1.442,1.442l-15.546,16.321A.952.952,0,0,1,319.271,247.794Z" transform="translate(25.41 -48.295)" fill="#e9e9f0"/>
        <path id="Path_34614" data-name="Path 34614" d="M355.641,247.15a1.02,1.02,0,0,1-.734-.3l-15.478-15.519a1.02,1.02,0,0,1,0-1.442,1.006,1.006,0,0,1,1.442,0l15.492,15.519a1.034,1.034,0,0,1,0,1.455A.993.993,0,0,1,355.641,247.15Z" transform="translate(32.93 -48.25)" fill="#e9e9f0"/>
        <circle id="Ellipse_11000" data-name="Ellipse 11000" cx="13.642" cy="13.642" r="13.642" transform="translate(378.235 152.249)" fill="#ff6c7d"/>
        <path id="Path_34615" data-name="Path 34615" d="M1.311-.667A3.139,3.139,0,0,1,.4-2.944,3.253,3.253,0,0,1,.8-4.563a2.575,2.575,0,0,1,1.19-1.091,2.478,2.478,0,0,1-1-1.11A3.109,3.109,0,0,1,.762-7.881a2.607,2.607,0,0,1,.872-1.974,3.462,3.462,0,0,1,2.461-.817,3.462,3.462,0,0,1,2.461.817,2.607,2.607,0,0,1,.872,1.974A3.109,3.109,0,0,1,7.2-6.764a2.133,2.133,0,0,1-1,1.036A2.943,2.943,0,0,1,7.375-4.563a3.324,3.324,0,0,1,.4,1.619A3.028,3.028,0,0,1,6.779-.663,3.868,3.868,0,0,1,4.006.278,3.586,3.586,0,0,1,1.311-.667ZM2.563-3.083A1.706,1.706,0,0,0,2.97-1.868a1.469,1.469,0,0,0,1.124.432,1.469,1.469,0,0,0,1.124-.432,1.706,1.706,0,0,0,.406-1.216,1.691,1.691,0,0,0-.414-1.234,1.5,1.5,0,0,0-1.117-.421,1.5,1.5,0,0,0-1.117.421A1.691,1.691,0,0,0,2.563-3.083ZM3.113-6.7a1.3,1.3,0,0,0,.981.366A1.294,1.294,0,0,0,5.079-6.7a1.316,1.316,0,0,0,.348-.945,1.348,1.348,0,0,0-.348-.985,1.316,1.316,0,0,0-.985-.355,1.331,1.331,0,0,0-.985.355,1.331,1.331,0,0,0-.355.985A1.293,1.293,0,0,0,3.113-6.7Zm9.229,1.428a2.042,2.042,0,0,0-.659.1,1.31,1.31,0,0,0-.74.652L9.067-4.614l.747-5.867h5.852v1.772H11.323l-.381,2.322A4.364,4.364,0,0,1,11.7-6.8,3.194,3.194,0,0,1,12.8-6.973a3.322,3.322,0,0,1,2.3.886,3.3,3.3,0,0,1,.981,2.578,4.045,4.045,0,0,1-.945,2.629A3.436,3.436,0,0,1,12.312.278a3.755,3.755,0,0,1-2.49-.813A3.158,3.158,0,0,1,8.738-2.842h2.08a2.015,2.015,0,0,0,.476,1.051,1.349,1.349,0,0,0,1.025.37A1.384,1.384,0,0,0,13.5-1.967a2.236,2.236,0,0,0,.406-1.373,2.386,2.386,0,0,0-.381-1.373A1.334,1.334,0,0,0,12.341-5.273Z" transform="translate(383.288 171.403)" fill="#fff"/>
      </g>
    </g>
  </g>
</svg>
